HIERARCHY
ROOT hip
{
	OFFSET 0.000000 0.000000 0.000000 
	CHANNELS 6 Xposition Yposition Zposition Xrotation Zrotation Yrotation
	JOINT abdomen
	{
		OFFSET 0.000000 3.402643 0.000000 
		CHANNELS 3 Xrotation Zrotation Yrotation
		JOINT chest
		{
			OFFSET 0.000000 8.438565 -0.680529 
			CHANNELS 3 Xrotation Zrotation Yrotation
			JOINT neck
			{
				OFFSET 0.000000 10.207942 -0.272212 
				CHANNELS 3 Xrotation Zrotation Yrotation
				JOINT head
				{
					OFFSET 0.000000 3.130431 0.000000 
					CHANNELS 3 Xrotation Zrotation Yrotation
					End Site
					{
						OFFSET 0.000000 3.130435 0.000000 
					}
				}
			}
			JOINT lCollar
			{
				OFFSET 3.470700 6.669187 -0.816635 
				CHANNELS 3 Yrotation Zrotation Xrotation
				JOINT lShldr
				{
					OFFSET 3.198488 0.000000 0.000000 
					CHANNELS 3 Zrotation Yrotation Xrotation
					JOINT lForeArm
					{
						OFFSET 10.139888 0.000000 0.000000 
						CHANNELS 3 Yrotation Zrotation Xrotation
						JOINT lHand
						{
							OFFSET 8.370511 0.000000 0.000000 
							CHANNELS 3 Zrotation Yrotation Xrotation
							End Site
							{
								OFFSET 4.083176 0.000000 0.000000 
							}
						}
					}
				}
			}
			JOINT rCollar
			{
				OFFSET -3.470700 6.669187 -0.816635 
				CHANNELS 3 Yrotation Zrotation Xrotation
				JOINT rShldr
				{
					OFFSET -3.198488 0.000000 0.000000 
					CHANNELS 3 Zrotation Yrotation Xrotation
					JOINT rForeArm
					{
						OFFSET -10.139888 0.000000 0.000000 
						CHANNELS 3 Yrotation Zrotation Xrotation
						JOINT rHand
						{
							OFFSET -8.370511 0.000000 0.000000 
							CHANNELS 3 Zrotation Yrotation Xrotation
							End Site
							{
								OFFSET -4.083176 0.000000 0.000000 
							}
						}
					}
				}
			}
		}
	}
	JOINT lThigh
	{
		OFFSET 5.308129 -1.633274 1.361059 
		CHANNELS 3 Xrotation Zrotation Yrotation
		JOINT lShin
		{
			OFFSET -2.041588 -20.007561 0.000000 
			CHANNELS 3 Xrotation Zrotation Yrotation
			JOINT lFoot
			{
				OFFSET 0.000000 -19.190928 -1.224953 
				CHANNELS 3 Xrotation Yrotation Zrotation
				End Site
				{
					OFFSET 0.000000 -2.449906 4.627600 
				}
			}
		}
	}
	JOINT rThigh
	{
		OFFSET -5.308129 -1.633274 1.361059 
		CHANNELS 3 Xrotation Zrotation Yrotation
		JOINT rShin
		{
			OFFSET 2.041588 -20.007561 0.000000 
			CHANNELS 3 Xrotation Zrotation Yrotation
			JOINT rFoot
			{
				OFFSET 0.000000 -19.190928 -1.224953 
				CHANNELS 3 Xrotation Yrotation Zrotation
				End Site
				{
					OFFSET 0.000000 -2.449906 4.627600 
				}
			}
		}
	}
}
MOTION
Frames: 13
Frame Time: 0.033333
-1.462693 51.452812 1.084562 -3.535156 -4.394531 -48.272236 36.898602 -10.042292 2.237902 -24.511719 11.054688 2.443279 51.063168 8.107644 2.471410 -44.902344 -5.947266 -15.381871 2.000000 -2.000000 0.000000 -83.857422 33.310547 -33.212891 -49.871014 -1.614083 -1.897188 19.347942 32.423859 5.288208 -2.000000 2.000000 0.000000 68.417969 -2.675781 -10.908573 101.649017 -0.927767 -3.101373 -1.091404 -43.669220 -38.075405 -10.036789 -1.649810 1.851184 20.388378 -5.530407 -1.933983 0.441840 8.289643 4.247070 6.029315 -4.518219 -25.195589 33.436588 3.701584 2.718693 33.326916 -15.140361 -13.777949 
-2.905688 51.163364 2.189952 -3.896484 -4.394531 -48.770279 37.652607 -10.110704 2.002118 -24.882813 10.546875 1.982422 51.063168 8.107644 2.471410 -44.755859 -6.298828 -14.892579 2.000000 -2.000000 0.000000 -85.195313 31.240236 -35.468750 -49.873535 -1.971877 -1.993937 19.197832 31.707886 6.546965 -2.000000 2.000000 0.000000 68.603516 -2.978516 -10.302734 101.629311 -1.103254 -3.111523 -0.879883 -43.766869 -38.189301 -8.579820 -1.708285 2.654093 21.801123 -5.500432 -2.025060 -1.378015 8.029002 4.240298 9.086210 -3.621738 -24.631687 29.565229 4.043451 2.686534 34.830818 -20.417542 -19.450117 
-4.343814 51.567432 3.300563 -4.238281 -4.208984 -49.091797 38.436493 -10.092285 1.590263 -25.253908 10.029298 1.523437 51.063168 8.107644 2.471410 -45.107422 -6.269531 -14.335937 2.000000 -2.000000 0.000000 -86.005859 29.042969 -37.085102 -49.695663 -1.673716 -1.913257 18.900524 31.194269 7.231684 -2.000000 2.000000 0.000000 68.583984 -3.105469 -9.883340 101.453529 -1.103254 -3.111523 -0.935055 -43.044209 -38.208183 -7.307000 -1.756425 3.306826 22.857615 -5.452394 -2.148625 -2.614141 7.683417 4.466895 3.433311 -6.225948 -21.692181 37.155754 4.009983 2.954776 32.779282 -22.253828 -18.322119 
-5.791752 51.705093 4.400735 -4.599609 -4.052734 -49.277348 39.169773 -10.028311 1.447379 -25.273438 9.511719 1.142579 51.063168 8.107644 2.471410 -45.800781 -6.044921 -13.896486 2.000000 -2.000000 0.000000 -85.253906 27.958986 -37.128906 -50.577515 -1.944336 -2.024879 19.504213 31.518461 7.118240 -2.000000 2.000000 0.000000 68.505859 -2.226563 -10.058973 101.101990 -1.083756 -3.110395 -1.248230 -42.936836 -37.913197 -5.593376 -1.786337 3.404359 23.555786 -5.431984 -2.177820 -3.443631 7.005641 4.264900 -5.262632 -10.744810 -18.149063 48.342934 3.271161 3.801327 27.117767 -16.976042 -8.967239 
-7.264255 51.856758 5.474894 -4.951172 -3.876953 -49.257816 39.405525 -10.082958 1.173257 -25.292969 8.984374 0.917969 51.063168 8.107644 2.471410 -46.835938 -5.615234 -13.409160 2.000000 -2.000000 0.000000 -83.632813 27.578127 -35.981800 -51.985634 -1.938567 -2.093666 19.768078 32.197666 6.063790 -2.000000 2.000000 0.000000 68.408203 -0.996094 -10.019701 100.755531 -1.093343 -2.944722 -1.827879 -43.288788 -37.226650 -3.607315 -1.726107 3.334637 23.735176 -5.432641 -2.222618 -4.228434 7.263030 4.338102 -13.063311 -14.076176 -14.993643 55.722523 2.714790 4.020893 20.333328 -13.066611 -1.966428 
-8.776080 51.969234 6.507384 -4.941407 -3.515625 -48.935551 39.403934 -9.859257 1.135289 -24.599609 8.427735 0.440885 51.063168 8.107644 2.471410 -47.851563 -5.019531 -12.929689 2.000000 -2.000000 0.000000 -82.167969 27.207033 -34.809986 -53.568115 -1.694840 -2.107882 20.326090 32.755920 6.005571 -2.000000 2.000000 0.000000 68.300781 0.000000 -10.595703 100.579491 -1.074409 -2.933849 -2.518055 -43.338554 -36.490002 -1.765316 -1.755448 3.098383 23.558609 -5.412928 -2.213076 -5.387542 7.326190 4.617204 -15.984020 -15.455250 -14.706109 52.904732 2.939283 4.037831 12.900803 -12.828763 -1.033476 
-10.342017 52.052708 7.482591 -4.755859 -3.173828 -48.281792 38.914471 -9.757601 0.975233 -23.369141 7.871095 0.216181 51.063168 8.107644 2.471410 -48.867188 -4.404297 -12.637468 2.000000 -2.000000 0.000000 -80.537109 26.464842 -33.642582 -54.791752 -1.348985 -2.216066 20.245428 32.617519 5.360582 -2.000000 2.000000 0.000000 68.525391 1.240234 -10.771485 100.237885 -0.889173 -2.923136 -3.096303 -43.691303 -35.803413 0.331631 -1.468004 2.840856 23.423450 -5.442280 -2.157936 -6.126948 6.876766 5.085350 -16.619871 -15.925597 -15.990459 45.180477 3.495734 3.585943 6.136450 -12.282063 -2.818227 
-11.952458 52.089901 8.409478 -4.580078 -2.656286 -47.451233 38.424728 -9.447046 0.759508 -22.324219 7.304688 0.117188 51.063168 8.107644 2.471410 -49.541019 -4.003906 -12.568361 2.000000 -2.000000 0.000000 -79.208984 25.820311 -32.910156 -56.018532 -1.321534 -2.080767 20.833414 32.453808 5.361247 -2.000000 2.000000 0.000000 68.476563 1.718750 -11.064453 100.076660 -0.704096 -3.078659 -3.315019 -44.092239 -35.602062 2.493188 -1.080778 2.066006 23.067629 -5.460974 -2.140065 -6.079154 6.443646 4.602639 -17.340391 -15.023858 -17.537989 37.279766 4.126709 2.526594 1.645753 -11.146122 -4.460472 
-13.585580 52.097687 9.310466 -4.599609 -2.470703 -46.748260 38.131039 -9.489132 0.481411 -21.787107 7.470703 0.040332 51.063168 8.107644 2.471410 -50.039066 -3.613281 -12.539063 2.000000 -2.000000 0.000000 -77.958984 25.244141 -31.572269 -56.898273 -1.293991 -2.111710 20.881609 32.093380 5.286500 -2.000000 2.000000 0.000000 68.632813 1.933594 -11.318027 99.890984 -0.869835 -3.088245 -2.670174 -44.520473 -35.849442 4.162950 -0.438224 1.701378 23.098377 -5.461105 -2.123235 -5.746903 6.040735 4.465542 -16.968756 -13.167551 -20.378899 28.473774 4.594189 1.875879 -0.667596 -9.440662 -6.471599 
-15.237444 52.066074 10.190081 -4.404297 -2.470703 -46.240448 38.296738 -10.008986 -0.389329 -22.626953 8.720703 0.429688 51.063168 8.107644 2.471410 -49.335941 -3.662109 -13.632813 2.000000 -2.000000 0.000000 -77.226563 25.546875 -30.488281 -57.778019 -1.266449 -2.142652 20.513872 32.115051 5.260470 -2.000000 2.000000 0.000000 68.720703 1.054688 -11.279151 99.890984 -0.869835 -3.088245 -1.990137 -44.812401 -35.616722 5.965463 0.937420 0.730852 23.242538 -5.510581 -2.009374 -4.923972 5.488058 3.970177 -15.125606 -10.818008 -24.141882 19.663502 4.842659 1.666856 1.249317 -7.044597 -8.536448 
-16.904238 52.032959 11.052984 -4.404297 -2.832031 -45.840324 38.488556 -10.580925 -1.511599 -23.994141 10.507813 0.919750 51.063168 8.107644 2.471410 -47.949219 -3.955078 -15.146485 2.000000 -2.000000 0.000000 -76.474609 26.357422 -29.136290 -58.318954 -1.568007 -2.281516 20.054050 32.066620 5.429744 -2.000000 2.000000 0.000000 69.003906 0.009766 -10.869142 100.229073 -1.033155 -2.970575 -0.907555 -45.261009 -36.381031 7.441878 2.312753 0.113454 23.419762 -5.485692 -1.991180 -3.331706 5.292490 3.368875 -12.956642 -7.642476 -26.988590 11.023515 5.126128 0.469916 4.930613 -4.553488 -10.905269 
-18.582258 51.956165 11.903742 -4.404297 -3.173828 -45.488823 38.958233 -11.048101 -2.132610 -25.019533 11.777345 1.337891 51.063168 8.107644 2.471410 -47.060547 -4.013671 -16.074903 2.000000 -2.000000 0.000000 -76.015625 26.796877 -28.173830 -58.481956 -1.248655 -2.173026 19.394043 32.112171 5.208246 -2.000000 2.000000 0.000000 68.935547 -0.957031 -11.035319 100.237892 -0.879424 -2.922572 -0.063985 -45.085640 -36.732796 9.143280 3.357926 0.026411 23.614927 -5.397824 -2.127926 -1.473258 6.498029 6.377787 -11.121437 -5.524809 -28.938231 6.430407 5.191319 0.062044 5.603698 -2.418728 -12.102526 
-20.267681 51.769772 12.746972 -4.238281 -3.876953 -45.244141 39.108341 -11.128025 -1.974881 -25.195313 11.962891 1.328125 51.063168 8.107644 2.471410 -47.060551 -3.837891 -16.240234 2.000000 -2.000000 0.000000 -75.820313 26.601563 -28.950706 -58.305637 -1.257268 -2.152966 19.780186 32.100220 5.633638 -2.000000 2.000000 0.000000 68.974609 -1.113281 -11.201324 100.579765 -1.073845 -2.943594 0.715258 -45.125782 -37.338417 11.154865 4.187940 0.172674 23.606028 -5.319635 -2.277454 1.099937 7.688175 9.418444 -10.444987 -5.178256 -29.154488 9.074606 5.142237 0.952411 5.963191 -3.302295 -11.503031 
